<?xml version="1.0" encoding="utf-8"?>
<!-- Generator: Adobe Illustrator 28.3.0, SVG Export Plug-In . SVG Version: 6.00 Build 0)  -->
<svg version="1.1" xmlns="http://www.w3.org/2000/svg" xmlns:xlink="http://www.w3.org/1999/xlink" x="0px" y="0px"
	 viewBox="0 0 100 100" style="enable-background:new 0 0 100 100;" xml:space="preserve">
<style type="text/css">
	.st0{fill:rgb(255,255,255);fill-rule:nonzero;clip-rule:evenodd;}
</style>
<g id="New_Layer">
	<g>
		<path class="st0" d="M938.1-652.2c-4.5,5.4-5.4,16.9-2,24.8c1.2,2.7,2,5.1,1.8,5.3c-0.2,0.2-6.4,5.4-13.7,11.5l-13.4,11.1h-5.6
			c-6.4,0-12.5,2.4-16,6.3l-2.3,2.5l3.6,2.8c4.1,3.1,4.1,2.7-0.1,14.4c-2.3,6.6-2.6,8.6-2.2,17c0.3,7.6,0.9,10.6,3,15.2
			c3.5,7.6,10.4,14.2,18.6,18.1c6.1,2.9,7.6,3.1,16.7,3.2c11.5,0,17.6-1.7,25.6-7.1c2.8-1.9,5.3-3.4,5.6-3.4c0.2,0,2.3,1.3,4.6,2.9
			c15.1,10.3,28.8,11.5,44.5,3.9c7.4-3.7,13.8-10.3,17.9-18.6c2.6-5.2,2.8-6.6,2.8-17.2c0-11-0.1-11.8-3.3-17.9l-3.2-6.5l3.7-3.8
			l3.8-3.9l-2.5-2c-4.7-3.8-10.3-5.9-16-5.9c-6,0-5,0.7-30.2-20.5l-2.8-2.3l2.2-4.9c2.9-6.4,2.8-15.3-0.1-21c-1.1-2.3-2.5-4.4-3-4.7
			c-0.5-0.4-4.7,2.5-9.2,6.4c-4.6,3.8-8.7,7-9.2,7s-4.7-3.2-9.3-7c-4.5-3.9-8.5-7-8.7-7C939.4-653.5,938.7-652.9,938.1-652.2z
			 M970.2-595.4c11.5,9.8,11.9,10.2,10.1,11.9c-1,1-6.4,5.6-12.1,10.4c-9,7.6-10.5,8.5-12.1,7.4c-1-0.7-6.6-5.3-12.4-10.3
			c-8.5-7-10.4-9.2-9.5-10.1c2.2-2.1,23.2-19.4,23.6-19.4C958-605.5,963.5-600.9,970.2-595.4z M1020-583.1c0,0.2-0.8,1-1.7,1.7
			c-1.6,1.3-1.7,1.2-0.4-0.4C1019.2-583.4,1020-583.9,1020-583.1z M929.8-554.6l8.3,7l-3,1.5c-3.7,2-11.3,2.1-14.9,0.2
			c-6.2-3.2-9.8-12.5-7.3-18.9l1.1-2.9l3.8,3C919.8-563,925.2-558.5,929.8-554.6z M1002.4-565.3c2.9,11.2-3.8,20.8-14.6,20.8
			c-4.7,0-9.8-1.6-9.8-3.1c0-0.9,22.1-19.9,23.1-19.9C1001.5-567.5,1002-566.5,1002.4-565.3z"/>
		<path class="st0" d="M851.2-495.3l-2.2,1.1l0.2,32.1l0.3,32.1l2.8,0.9c1.7,0.6,3.7,0.6,5.5,0l2.7-0.9l0.5-15.5
			c0.4-12.9,0.8-15.5,2-15.5c1.3,0,1.5,2.4,1.8,15c0.2,13.9,0.4,15.1,2.3,16.7c2.6,2.2,5.8,2.3,8.7,0.2c2.2-1.5,2.2-1.6,2.2-32.9
			s0-31.4-2.2-32.9c-1.2-0.9-3.2-1.6-4.3-1.6s-3.1,0.7-4.3,1.6c-2.1,1.4-2.2,2.2-2.2,15c0,12.7-0.1,13.4-2,13.4s-2-0.7-2-13.4
			c0-12.8-0.1-13.6-2.2-15C856.2-496.7,854.4-496.8,851.2-495.3z"/>
		<path class="st0" d="M904.2-495.3c-2.6,1.3-2.9,2.5-3.5,12.8c-0.3,4.1-1.1,8.8-1.8,10.3c-1.5,3.3-5.6,5.7-9.8,5.7
			c-2.1,0-3.2,0.6-3.6,2c-1.4,4.4,2,5.1,12,2.5c7.5-2,12-4.9,15-10c1.6-2.6,2.6-3.4,2.9-2.5c0.2,0.8,1.2,4,2,7.1
			c1.8,6.6,3.5,8.2,7.9,8.1c4-0.1,7.7-4.1,7.7-8.3c0-4.3-4-7.5-11.3-9.2l-6-1.3l0.2-7c0.2-7.4-0.2-8.5-3.6-10.3
			C909.7-496.7,907.2-496.7,904.2-495.3z"/>
		<path class="st0" d="M940.5-495.4c-1.1,0.7-2.3,1.7-2.7,2.3c-0.4,0.6-0.8,7.7-0.8,15.7c0,13.2,0.2,14.8,1.9,16.3
			c2.2,2,7.8,2.4,11,0.7c2-1.1,2.1-1.9,2.1-17c0-12.4-0.3-16.1-1.4-17C948.5-496.2,942.8-496.7,940.5-495.4z"/>
		<path class="st0" d="M979.2-495.5c-3,1.3-4.2,4.8-4.2,12.9c0,3.7-0.5,8.2-1.1,10c-1.3,3.6-5.3,6.1-9.8,6.1c-3.1,0-5,2.8-3.5,5.1
			c0.8,1.3,8,0.7,14.4-1.2c4.5-1.4,12.5-7.8,13.5-11c0.7-2.2,2.5-1.6,2.5,0.9c0,3.4,2.2,9.4,4.2,11.4c3.6,3.6,11.8-0.7,11.8-6.3
			c0-5.8-2.2-7.6-11.6-9.8l-5.2-1.2l0.5-6.2c0.4-5.1,0.2-6.6-1.3-8.4C987.2-495.8,982.5-496.9,979.2-495.5z"/>
		<path class="st0" d="M1013.6-494.2c-2.6,2.6-2.6,2.9-2.6,17c0,12.7,0.2,14.8,1.9,16.8c1.4,1.8,2.9,2.4,5.9,2.4
			c6.1,0,7.2-1.5,7.2-10.1v-7.3l4.3-0.3c3.7-0.3,4.2-0.6,4.2-2.8s-0.5-2.5-4.2-2.8l-4.3-0.3v-5.8c0-6.6-0.9-7.9-6.3-8.8
			C1016.8-496.6,1015.7-496.3,1013.6-494.2z"/>
		<path class="st0" d="M825-494.4c-8,3.3-10.4,10.5-10.5,31.4c0,17.3,1.5,24.2,6.4,28.9c5.9,5.7,15.8,4.1,19.8-3.2
			c5.8-10.3,5.8-42.8,0-51.6C837.3-494.1,830.2-496.6,825-494.4z M831.5-486.3c0.9,4.6,0.2,48.5-0.8,49.4c-0.4,0.4-1.3,0.2-2-0.5
			c-1.3-1.3-1.8-47.1-0.5-50.4C829.3-490.5,830.9-489.8,831.5-486.3z"/>
		<path class="st0" d="M1042.4-493c-1.5,3.8,0.2,4.5,10.6,4.5h10v5.5c0,11.8-6.3,19.5-17.3,21.3c-3.3,0.6-4.3,1.2-4.5,3
			c-0.5,3,1.5,3.5,8.3,2.3c9.3-1.7,17-5.8,22.5-11.8l4.9-5.3l3.3,6.2c6.5,12.3,13.2,15.9,19.2,10.3c2.3-2.1,2.7-3.2,2.4-6.7
			c-0.5-6.4-5-8.9-20.8-11.3l-3.5-0.5l0.3-6.5l0.4-6.5h10.8c9,0,10.9-0.3,11.4-1.6c1.6-4.1-0.3-4.4-29.6-4.4
			C1047-494.5,1042.9-494.3,1042.4-493z"/>
		<path class="st0" d="M987-456.6c-11.9,2.3-18,7.2-18,14.5c0,8.1,6.5,12.9,20,14.8c6,0.9,10.2,0.9,16.9,0.1
			c14.5-1.9,21.1-6.5,21.1-15c0-9-9.1-14.1-26.5-14.8C995.6-457.2,989.5-457,987-456.6z M1005.3-450.4c8.9,4.6,9,13.6,0.1,16.9
			c-6.5,2.5-18.1,0.3-20.3-3.8c-1.5-2.8-1.4-7.4,0.2-9.5C988.5-451,1000-453.1,1005.3-450.4z"/>
		<path class="st0" d="M1065.7-454.7c-1.3,1.4-1.7,3.8-1.7,9v7.1l-13.2,0.3l-13.3,0.3v2.5v2.5l33.4,0.3c19.3,0.1,33.9-0.2,34.4-0.7
			s0.6-1.8,0.2-3c-0.6-2-1.3-2.1-13.6-2.1H1079v-7.3c0-5.9-0.4-7.7-1.8-9C1074.6-457.1,1067.8-457,1065.7-454.7z"/>
		<path class="st0" d="M898.2-454.5c-2.8,1.2-4.2,4.8-4.1,10.8c0,7.1,1.9,11.3,5.9,13.7c3.2,1.8,5.4,2,25,2.3
			c28.1,0.3,26.5,1.2,26.5-13.8c0-11.2-0.1-11.5-2.5-12.7C946-455.7,901.9-455.9,898.2-454.5z M937-441.5v8h-13.5H910v-8v-8h13.5
			H937V-441.5z"/>
	</g>
</g>
<g id="MasterLayer_1">
</g>
</svg>
