<?xml version="1.0" encoding="utf-8"?>
<!-- Generator: Adobe Illustrator 28.3.0, SVG Export Plug-In . SVG Version: 6.00 Build 0)  -->
<svg version="1.1" xmlns="http://www.w3.org/2000/svg" xmlns:xlink="http://www.w3.org/1999/xlink" x="0px" y="0px"
	 viewBox="0 0 1920 1080" style="enable-background:new 0 0 1920 1080;" xml:space="preserve">
<style type="text/css">
	.st0{fill-rule:evenodd;clip-rule:evenodd;}
</style>
<g id="New_Layer">
	<g>
		<path class="st0" d="M823.3-579.1c-6,1.6-13,7.4-15.7,12.9c-2.5,5.2-2.8,13.5-0.6,18c2.2,4.4,44.4,47.4,47.4,48.3
			c2.2,0.6,4.8-1.8,24.1-21.4c23-23.3,26-27.4,26-35.3c0-10.1-8.9-20.6-19.3-22.9c-7.7-1.6-12.4,0.1-21.6,8.1
			c-4.4,3.8-8.5,6.9-9,6.9c-0.6,0-4.4-3.1-8.5-6.9c-5.5-5.1-8.6-7.1-11.9-8C828.8-580.7,829.3-580.7,823.3-579.1z"/>
		<path class="st0" d="M950.7-545.8L951-521l3.3,0.3l3.2,0.3v-13.5c0-7.4,0.4-13.7,0.8-14c2.4-1.5,3.2,1.6,3.4,13.9l0.3,13l3.3,0.3
			l3.2,0.3v-25v-25.1H965h-3.5v10c0,9.3-0.1,10-2,10s-2-0.7-2-10v-10H954h-3.5L950.7-545.8z"/>
		<path class="st0" d="M1006.5-558.1c0,6.8,0.3,13.1,0.6,14c0.4,1.1,1.9,1.6,4.5,1.6h3.9v-14v-14h-4.5h-4.5V-558.1z"/>
		<path class="st0" d="M1054.5-556.5v14h4h4v-6v-6h3c2,0,3-0.5,3-1.5s-1-1.5-3-1.5h-3v-6.5v-6.5h-4h-4V-556.5z"/>
		<path class="st0" d="M931.9-568.5c-3.8,1.5-4.9,6.4-4.9,22c0,16.1,0.9,19.5,5.9,21.9c2.3,1,3.7,1.1,6.6,0.2
			c5.6-1.7,7.2-6.3,7.2-21.6c0-13.5-1.2-19.7-4.5-22C939.9-569.6,935.2-569.9,931.9-568.5z M939.8-560.5c0.9,5.2,0.4,28.6-0.8,31.2
			c-1,2.5-3.2,2.2-4.6-0.4c-1.4-2.6-1.7-29.7-0.5-33.6c0.6-1.6,1.4-2.2,2.9-2C938.5-565.1,939.1-564,939.8-560.5z"/>
		<path class="st0" d="M983.5-566c0,6.8-2.3,12.9-6.7,17.6c-2.5,2.7-4,5-3.4,5.3c1.7,1.1,6.6-2,10.5-6.5l3.5-4.2l4.4,4
			c5.4,5,8.6,6.8,9.8,5.6c0.6-0.6-0.8-2.8-3.4-5.5c-4.3-4.5-6.7-10.2-6.7-16.2c0-2.4-0.4-2.6-4-2.6S983.5-568.2,983.5-566z"/>
		<path class="st0" d="M1031.5-564.3c0,6.9-1.9,12-6.1,16.1c-2.1,2.2-3.9,4.3-3.9,4.8c0,3,8.2-2,12-7.3l2.9-3.9l1.6,2.5
			c2.3,3.5,10.6,8.9,11.8,7.7c0.7-0.7-0.4-2.4-3-5c-4.2-4.2-6.3-9.4-6.3-15.5v-3.6h-4.5h-4.5V-564.3z"/>
		<path class="st0" d="M1074.7-566.8c0.3,1.5,1.6,1.9,7.2,2.1l6.8,0.3l-0.7,4.7c-0.4,2.6-1.3,5.8-2,7.3c-1.4,2.6-7.5,8.4-11.1,10.5
			c-1.3,0.9-1.6,1.5-0.8,2.3c1.5,1.6,10.5-3.2,14.9-8l3.6-4l4,3.6c5,4.5,12.1,8,14.4,7.1c1.5-0.5,1-1.2-2.6-3.5
			c-2.4-1.5-5.2-3.7-6.1-4.7c-2.5-2.8-4.8-8.8-4.8-12.4v-3h6.5c5.8,0,6.5-0.2,6.5-2c0-1.9-0.7-2-18.1-2
			C1075.8-568.5,1074.4-568.4,1074.7-566.8z"/>
		<path class="st0" d="M1088.5-534.5v7h-8.5c-7.8,0-8.5,0.2-8.5,2c0,1.9,0.7,2,21.5,2s21.5-0.1,21.5-2c0-1.8-0.7-2-8.5-2h-8.5v-7v-7
			h-4.5h-4.5V-534.5z"/>
		<path class="st0" d="M1037.3-539.3c-5.4,1.4-9.2,6.2-8.4,10.6c1,6.7,5.9,9.5,16.6,9.6c12.1,0,18.8-4.8,17.3-12.6
			C1061.5-538.7,1049-542.4,1037.3-539.3z M1052.5-535.5c3.1,3.1,2.7,9.3-0.6,11.9c-3.5,2.8-9.7,2.8-12.4,0.1
			c-2.9-2.9-2.8-10.3,0.2-12.4C1043-538.2,1050-538,1052.5-535.5z"/>
		<path class="st0" d="M980.7-530.3l0.3,9.3l17.3,0.3l17.2,0.2v-9.5v-9.5H998h-17.6L980.7-530.3z M1006.5-530v6.5h-9h-9v-6.5v-6.5h9
			h9V-530z"/>
	</g>
</g>
<g id="MasterLayer_1">
</g>
</svg>
